<svg width="192" height="192" viewBox="0 0 192 192" fill="none" xmlns="http://www.w3.org/2000/svg">
<path d="M166.679 116.188C166.679 186.157 108.734 195.32 79.7607 191.155C18.2818 180.743 11.9218 126.6 16.1618 103.693C20.4017 80.7861 26.7616 95.3632 24.6416 45.3847C22.9457 5.40186 64.8818 5.81834 71.2808 5.81834C92.4804 5.81834 166.679 28.7252 166.679 116.188Z" fill="#FBC42E"/>
<path d="M136.001 0.0949011C135.98 0.1307 135.96 0.166717 135.939 0.202951C137.069 1.74948 147.872 12.6645 152.65 16.7106C145.533 19.6326 128.402 32.1591 121.571 39.6116C123.791 24.5705 131.639 7.72123 135.939 0.202951C135.797 0.00912831 135.808 -0.0375429 136.001 0.0949011Z" fill="#FBC42E"/>
<path d="M182.612 46.6105C176.106 35.1233 156.687 13.8109 131.059 20.459C135.321 31.9968 151.6 53.38 182.612 46.6105Z" fill="#2BC566"/>
<rect x="46.4517" y="92.9032" width="123.871" height="6.19354" rx="3.09677" fill="#131313"/>
<ellipse cx="95.9999" cy="96" rx="28.9032" ry="29.5385" fill="#131313"/>
<ellipse cx="30.9677" cy="96" rx="28.9032" ry="29.5385" fill="#131313"/>
<path fill-rule="evenodd" clip-rule="evenodd" d="M91.1023 125.116L103.62 67.4989C108.667 68.9048 113.164 71.6733 116.709 75.3936L106.227 123.636C103.048 124.865 99.6009 125.538 96 125.538C94.3306 125.538 92.6943 125.394 91.1023 125.116Z" fill="#6B6B6B"/>
<path d="M63.3364 133.24C57.8694 133.14 50.2287 128.049 53.5887 124.809C56.9489 121.57 58.4777 128.2 63.4272 128.291C68.3766 128.381 70.1475 121.812 73.3865 125.172C76.6257 128.533 68.8034 133.34 63.3364 133.24Z" fill="#131313"/>
</svg>
