<svg width="193" height="193" viewBox="0 0 193 193" fill="none" xmlns="http://www.w3.org/2000/svg">
<path d="M175.651 116.457C175.651 186.427 114.063 195.589 83.2687 191.425C17.9254 181.012 11.1657 126.869 15.6721 103.962C20.1785 81.0554 26.9382 95.6325 24.685 45.654C22.8824 5.67116 67.4545 6.08765 74.2558 6.08765C96.7879 6.08765 175.651 28.9945 175.651 116.457Z" fill="#FBC42E"/>
<path d="M143.044 0.364188C143.022 0.399987 143 0.436004 142.978 0.472238C144.179 2.01876 155.661 12.9338 160.74 16.9798C153.175 19.9019 134.967 32.4284 127.707 39.8809C130.067 24.8398 138.408 7.99051 142.978 0.472238C142.828 0.278415 142.839 0.231744 143.044 0.364188Z" fill="#FBC42E"/>
<path d="M192.584 46.8797C185.67 35.3925 165.03 14.0801 137.791 20.7282C142.321 32.266 159.623 53.6492 192.584 46.8797Z" fill="#2BC566"/>
<path d="M173.489 93.8604C173.765 93.8604 173.989 93.6365 173.989 93.3604C173.989 93.0842 173.765 92.8604 173.489 92.8604V93.8604ZM118.341 93.8604H138.19V92.8604H118.341V93.8604ZM138.19 93.8604H173.489V92.8604H138.19V93.8604Z" fill="#131313"/>
<ellipse cx="100.529" cy="96.2692" rx="30.72" ry="29.5385" fill="#131313"/>
<ellipse cx="31.4086" cy="96.2692" rx="30.72" ry="29.5385" fill="#131313"/>
<path fill-rule="evenodd" clip-rule="evenodd" d="M95.323 125.385L108.628 67.7681C113.992 69.174 118.771 71.9424 122.539 75.6627L111.399 123.905C108.02 125.135 104.356 125.808 100.529 125.808C98.7543 125.808 97.0151 125.663 95.323 125.385Z" fill="#6B6B6B"/>
<path d="M51.7379 93.3604H82.7161" stroke="#131313"/>
<path d="M54.4487 125.808C57.5465 128.717 65.6009 132.79 73.0356 125.808" stroke="#131313" stroke-linecap="round"/>
</svg>
