<svg width="40" height="41" viewBox="0 0 40 41" fill="none" xmlns="http://www.w3.org/2000/svg">
<g clip-path="url(#clip0_1377_12853)">
<path d="M20 2.15039C22.359 2.15039 22.314 3.01439 23.903 3.09839C25.492 3.18339 26.323 2.68339 27.396 2.84139C28.142 2.95139 28.703 3.28439 29.091 3.61139C29.515 3.96939 29.585 4.59239 29.247 5.03239L25.551 9.83439C25.222 10.2254 25.262 10.8044 25.648 11.1384C31.4 16.1214 38.5 22.1144 38.5 27.4954C38.5 36.5374 31.078 39.3354 20 39.3354C8.922 39.3354 1.5 36.5374 1.5 27.4954C1.5 22.1154 8.6 16.1214 14.352 11.1384C14.738 10.8044 14.778 10.2244 14.449 9.83439L10.753 5.03239C10.415 4.59239 10.485 3.96939 10.909 3.61139C11.297 3.28439 11.858 2.95139 12.604 2.84139C13.677 2.68339 14.509 3.18339 16.097 3.09839C17.686 3.01339 17.641 2.15039 20 2.15039Z" fill="#FFC522"/>
<path d="M20.0834 12.1268C18.1424 12.1268 16.1974 11.9448 14.2994 11.5828C13.6944 11.4668 13.2984 10.8828 13.4134 10.2778C13.5294 9.67278 14.1144 9.27378 14.7184 9.39078C18.2374 10.0618 21.9364 10.0648 25.4154 9.39078C26.0194 9.26978 26.6054 9.66878 26.7224 10.2738C26.8394 10.8788 26.4434 11.4638 25.8384 11.5808C23.9614 11.9438 22.0254 12.1258 20.0834 12.1258V12.1268Z" fill="#99452E"/>
<path d="M20.2396 32.6678C17.6716 32.6678 15.7166 31.1478 14.8986 30.1048C14.4216 29.4958 14.5286 28.6158 15.1376 28.1388C15.7436 27.6648 16.6176 27.7678 17.0966 28.3698C17.2906 28.6088 19.0466 30.6508 21.7996 29.5508C22.4686 29.2838 22.7736 28.7998 22.7286 28.4588C22.6606 27.9378 21.7926 27.3148 20.0086 27.1008C15.6086 26.5728 14.9456 24.0788 14.8466 23.3258C14.6246 21.6258 15.6966 19.9958 17.5146 19.2698C21.1926 17.8038 23.8766 19.7738 24.8596 20.6888C25.4256 21.2148 25.4566 22.1018 24.9296 22.6678C24.4016 23.2328 23.5176 23.2648 22.9506 22.7378C22.0516 21.8998 20.5576 21.0708 18.5516 21.8718C17.8826 22.1388 17.5776 22.6228 17.6226 22.9638C17.6906 23.4848 18.5576 24.1078 20.3416 24.3218C24.7416 24.8498 25.4046 27.3438 25.5036 28.0958C25.7266 29.7958 24.6536 31.4258 22.8366 32.1518C21.9206 32.5168 21.0486 32.6688 20.2386 32.6688L20.2396 32.6678Z" fill="#FFF3CC"/>
<path d="M20.1764 21.546C19.4034 21.546 18.7764 20.92 18.7764 20.147V18.151C18.7764 17.378 19.4034 16.752 20.1764 16.752C20.9494 16.752 21.5764 17.378 21.5764 18.151V20.147C21.5764 20.92 20.9494 21.546 20.1764 21.546Z" fill="#FFF3CC"/>
<path d="M20.1764 34.669C19.4034 34.669 18.7764 34.043 18.7764 33.27V31.274C18.7764 30.501 19.4034 29.875 20.1764 29.875C20.9494 29.875 21.5764 30.501 21.5764 31.274V33.27C21.5764 34.043 20.9494 34.669 20.1764 34.669Z" fill="#FFF3CC"/>
</g>
<defs>
<clipPath id="clip0_1377_12853">
<rect width="40" height="40" fill="white" transform="translate(0 0.742188)"/>
</clipPath>
</defs>
</svg>
